<svg width="36" height="36" viewBox="0 0 36 36" fill="none" xmlns="http://www.w3.org/2000/svg">
<path d="M8.09994 3.59998C8.33864 3.59998 8.56755 3.6948 8.73634 3.86358C8.90512 4.03236 8.99994 4.26128 8.99994 4.49998C8.99994 11.0232 14.1767 16.2 20.6999 16.2H22.1273L20.0627 14.1372C19.9791 14.0535 19.9127 13.9542 19.8674 13.8448C19.8221 13.7355 19.7988 13.6183 19.7988 13.5C19.7988 13.3816 19.8221 13.2645 19.8674 13.1551C19.9127 13.0458 19.9791 12.9465 20.0627 12.8628C20.2317 12.6938 20.4609 12.5988 20.6999 12.5988C20.8183 12.5988 20.9355 12.6221 21.0448 12.6674C21.1541 12.7127 21.2535 12.7791 21.3371 12.8628L24.9371 16.4628C25.021 16.5464 25.0875 16.6457 25.1328 16.755C25.1782 16.8644 25.2015 16.9816 25.2015 17.1C25.2015 17.2184 25.1782 17.3356 25.1328 17.4449C25.0875 17.5543 25.021 17.6536 24.9371 17.7372L21.3371 21.3372C21.2535 21.4209 21.1541 21.4872 21.0448 21.5325C20.9355 21.5778 20.8183 21.6011 20.6999 21.6011C20.5816 21.6011 20.4644 21.5778 20.3551 21.5325C20.2458 21.4872 20.1464 21.4209 20.0627 21.3372C19.9791 21.2535 19.9127 21.1542 19.8674 21.0448C19.8221 20.9355 19.7988 20.8183 19.7988 20.7C19.7988 20.5816 19.8221 20.4645 19.8674 20.3551C19.9127 20.2458 19.9791 20.1465 20.0627 20.0628L22.1273 18H20.6999C19.1606 17.9897 17.6346 18.2853 16.2104 18.8696C14.7862 19.454 13.4924 20.3154 12.4039 21.4039C11.3154 22.4924 10.4539 23.7863 9.8696 25.2104C9.28526 26.6346 8.98965 28.1606 8.99994 29.7C8.99994 29.9387 8.90512 30.1676 8.73634 30.3364C8.56755 30.5052 8.33864 30.6 8.09994 30.6C7.86125 30.6 7.63233 30.5052 7.46354 30.3364C7.29476 30.1676 7.19994 29.9387 7.19994 29.7C7.18388 26.975 7.99804 24.3097 9.53409 22.0589C11.0701 19.808 13.2552 18.0783 15.7985 17.1C13.2552 16.1216 11.0701 14.3919 9.53409 12.1411C7.99804 9.8902 7.18388 7.22495 7.19994 4.49998C7.19994 4.26128 7.29476 4.03236 7.46354 3.86358C7.63233 3.6948 7.86125 3.59998 8.09994 3.59998V3.59998ZM18.0575 20.1474C15.8491 20.74 13.918 22.0877 12.5999 23.9562V25.2C12.5999 26.1548 12.9792 27.0704 13.6544 27.7456C14.3295 28.4207 15.2452 28.8 16.1999 28.8H26.9999C27.9547 28.8 28.8704 28.4207 29.5455 27.7456C30.2207 27.0704 30.5999 26.1548 30.5999 25.2V8.99998C30.5999 8.0452 30.2207 7.12952 29.5455 6.45439C28.8704 5.77926 27.9547 5.39998 26.9999 5.39998H16.1999C15.2452 5.39998 14.3295 5.77926 13.6544 6.45439C12.9792 7.12952 12.5999 8.0452 12.5999 8.99998V10.2438C13.9179 12.1124 15.849 13.4601 18.0575 14.0526C17.938 13.4834 18.0056 12.8909 18.2501 12.3633C18.4947 11.8357 18.9032 11.4012 19.4147 11.1246C19.9263 10.848 20.5135 10.744 21.0889 10.8282C21.6643 10.9125 22.1971 11.1804 22.6079 11.592L26.2079 15.192C26.4588 15.4427 26.6579 15.7404 26.7937 16.0681C26.9295 16.3958 26.9994 16.7471 26.9994 17.1018C26.9994 17.4565 26.9295 17.8077 26.7937 18.1354C26.6579 18.4631 26.4588 18.7608 26.2079 19.0116L22.6079 22.6116C22.1969 23.0238 21.6637 23.2921 21.0877 23.3765C20.5118 23.4609 19.9239 23.3569 19.4119 23.0801C18.8998 22.8032 18.491 22.3683 18.2463 21.8401C18.0016 21.3119 17.9341 20.7188 18.0539 20.1492L18.0575 20.1474Z" fill="black"/>
</svg>
